<svg id="Camada_1" data-name="Camada 1" xmlns="http://www.w3.org/2000/svg" viewBox="0 0 47 40"><defs><style>.cls-1{fill:#606060;}</style></defs><title>conteudo</title><path class="cls-1" d="M22.35,32.83a1.6,1.6,0,0,1-.52-.1C20.19,32.07,16,31,6.3,31.05a1.24,1.24,0,0,1-1-.4,1.4,1.4,0,0,1-.42-1V2.27a1.43,1.43,0,0,1,.41-1,1.28,1.28,0,0,1,1-.4,29,29,0,0,1,16.9,5.84h0a1.4,1.4,0,0,1,.56,1.12V31.42a1.4,1.4,0,0,1-.62,1.17A1.36,1.36,0,0,1,22.35,32.83Zm-15-2.78c8.66,0,12.85.94,14.86,1.75a.4.4,0,0,0,.54-.38V7.83a.42.42,0,0,0-.16-.32h0A28,28,0,0,0,6.29,1.87h0A.43.43,0,0,0,6,2a.4.4,0,0,0-.12.29V29.65a.45.45,0,0,0,.12.29c.08.07.18.15.29.11Z"/><path class="cls-1" d="M24.27,32.83a1.36,1.36,0,0,1-.78-.24,1.4,1.4,0,0,1-.62-1.17V7.83a1.4,1.4,0,0,1,.56-1.12A29,29,0,0,1,40.33.87h0a1.42,1.42,0,0,1,1,.4,1.43,1.43,0,0,1,.41,1V29.65a1.4,1.4,0,0,1-.42,1,1.45,1.45,0,0,1-1,.4c-9.7-.08-13.89,1-15.53,1.68A1.6,1.6,0,0,1,24.27,32.83Zm16.06-31A28,28,0,0,0,24,7.51a.42.42,0,0,0-.16.32V31.42a.39.39,0,0,0,.18.34.36.36,0,0,0,.36,0C26.5,31,31,30,40.33,30.05a.44.44,0,0,0,.29-.11.45.45,0,0,0,.12-.29V2.27A.45.45,0,0,0,40.62,2c-.08-.07-.2-.16-.29-.11Z"/><path class="cls-1" d="M41.74,3.57v1A1.42,1.42,0,0,1,43.08,6V31a1.42,1.42,0,0,1-1.41,1.42H25.57c-.31.1-.57.19-.78.28a1.6,1.6,0,0,1-.52.1,1.36,1.36,0,0,1-.78-.24,1.07,1.07,0,0,1-.16-.14h0a1.07,1.07,0,0,1-.16.14,1.36,1.36,0,0,1-.78.24,1.6,1.6,0,0,1-.52-.1c-.21-.09-.47-.18-.78-.28H4.84A1.43,1.43,0,0,1,3.42,31V6A1.43,1.43,0,0,1,4.84,4.56h0v-1h0A2.43,2.43,0,0,0,2.42,6V31a2.42,2.42,0,0,0,2.42,2.42H41.67A2.41,2.41,0,0,0,44.08,31V6A2.41,2.41,0,0,0,41.74,3.57Z"/><path class="cls-1" d="M20.6,11.55A27.7,27.7,0,0,0,7.83,6.73l0-1a28.33,28.33,0,0,1,13.29,5Z"/><path class="cls-1" d="M20.58,15.8C15.9,12.08,7.88,11.19,7.8,11.18l.11-1c.34,0,8.39.93,13.29,4.83Z"/><path class="cls-1" d="M20.65,19.41a29.16,29.16,0,0,0-12.79-3.5v-1h0a30.4,30.4,0,0,1,13.26,3.62Z"/><path class="cls-1" d="M20.72,23C12.6,20.1,8,20.63,7.92,20.64l-.13-1c.2,0,4.89-.58,13.27,2.42Z"/><path class="cls-1" d="M20.62,26.86C16.84,24.47,8,24.76,7.87,24.76l0-1c.38,0,9.27-.3,13.31,2.25Z"/><path class="cls-1" d="M26.07,11.62l-.57-.83a28.46,28.46,0,0,1,13.29-5l.05,1A27.8,27.8,0,0,0,26.07,11.62Z"/><path class="cls-1" d="M26.1,15.87l-.62-.78c4.89-3.9,12.94-4.79,13.28-4.83l.11,1C38.79,11.26,30.76,12.16,26.1,15.87Z"/><path class="cls-1" d="M26,19.48l-.48-.88A30.47,30.47,0,0,1,38.82,15v1h0A29.76,29.76,0,0,0,26,19.48Z"/><path class="cls-1" d="M26,23.07l-.34-.94c8.37-3,13.06-2.44,13.26-2.42l-.13,1S34.07,20.16,26,23.07Z"/><path class="cls-1" d="M26.05,26.93l-.53-.85c4-2.55,12.94-2.26,13.31-2.25l0,1C38.71,24.83,29.84,24.54,26.05,26.93Z"/><path class="cls-1" d="M44.08,7.6v1A1.41,1.41,0,0,1,45,10v23.2a1.41,1.41,0,0,1-1.41,1.41H2.9a1.42,1.42,0,0,1-1.42-1.41V10a1.42,1.42,0,0,1,.94-1.33v-1A2.42,2.42,0,0,0,.48,10v23.2A2.42,2.42,0,0,0,2.9,35.58H43.61A2.41,2.41,0,0,0,46,33.17V10A2.41,2.41,0,0,0,44.08,7.6Z"/></svg>