<svg id="Camada_1" data-name="Camada 1" xmlns="http://www.w3.org/2000/svg" viewBox="0 0 47 40"><defs><style>.cls-1{fill:#606060;}.cls-2{fill:none;stroke:#606060;stroke-miterlimit:10;}</style></defs><title>exercicios-01</title><path class="cls-1" d="M16.52,7.36H32.88a.63.63,0,0,1,.63.63h0a.63.63,0,0,1-.63.63H16.52A.63.63,0,0,1,15.89,8h0A.63.63,0,0,1,16.52,7.36Z"/><path class="cls-1" d="M16.52,14.28H32.88a.63.63,0,0,1,.63.63h0a.63.63,0,0,1-.63.63H16.52a.63.63,0,0,1-.63-.63h0A.63.63,0,0,1,16.52,14.28Z"/><rect class="cls-1" x="15.89" y="21.19" width="17.62" height="1.26" rx="0.63"/><rect class="cls-1" x="15.89" y="28.11" width="17.62" height="1.26" rx="0.63"/><path class="cls-2" d="M34.26,38.93l-.73-3.28a.48.48,0,0,1,0-.29l3.61-10.77.51-1.54a.59.59,0,0,1,.75-.37h0l1.1.36"/><line class="cls-2" x1="38.82" y1="25.14" x2="37.16" y2="24.59"/><line class="cls-2" x1="33.5" y1="35.5" x2="35.28" y2="36.09"/><path class="cls-2" d="M34.14,38.9l2.62-2.18a.51.51,0,0,0,.16-.25l3.55-10.79.5-1.53a.6.6,0,0,0-.38-.75L39.5,23"/><line class="cls-2" x1="38.82" y1="25.14" x2="40.48" y2="25.69"/><line class="cls-2" x1="36.89" y1="36.62" x2="35.12" y2="36.03"/><path class="cls-1" d="M34.83,34.49l2.91-8.8a.26.26,0,0,1,.32-.16h0a.26.26,0,0,1,.16.32l-2.92,8.8a.26.26,0,0,1-.32.16h0A.25.25,0,0,1,34.83,34.49Z"/><rect class="cls-1" x="36.46" y="6.55" width="1.47" height="14.97"/><path class="cls-1" d="M31.58.18H16.88a6.37,6.37,0,0,0-6.35,6.35V29.65A6.37,6.37,0,0,0,16.88,36h14.7a6.74,6.74,0,0,0,1-.08l0-1.48a4.78,4.78,0,0,1-1,.1H16.88A4.91,4.91,0,0,1,12,29.65V6.53a4.91,4.91,0,0,1,4.88-4.89h14.7a4.91,4.91,0,0,1,4.89,4.88V12.1h1.46V6.53A6.37,6.37,0,0,0,31.58.18Z"/></svg>