<svg id="Camada_1" data-name="Camada 1" xmlns="http://www.w3.org/2000/svg" viewBox="0 0 47 40"><defs><style>.cls-1{fill:none;stroke:#606060;stroke-miterlimit:10;stroke-width:1.5px;}.cls-2{fill:#606060;}</style></defs><title>provas</title><rect class="cls-1" x="10.66" y="2.42" width="26.49" height="35.1" rx="5.74"/><polygon class="cls-2" points="16.19 12.14 14.44 9.86 15.46 9.08 16.38 10.28 19.44 7.61 20.29 8.59 16.19 12.14"/><polygon class="cls-2" points="16.19 19.21 14.44 16.93 15.46 16.14 16.38 17.34 19.44 14.68 20.29 15.65 16.19 19.21"/><rect class="cls-1" x="15.73" y="22.31" width="2.96" height="2.96" rx="0.7"/><rect class="cls-1" x="15.73" y="29.38" width="2.96" height="2.96" rx="0.7"/><rect class="cls-2" x="22.39" y="9.01" width="11" height="1.29" rx="0.64"/><rect class="cls-2" x="22.39" y="16.08" width="11" height="1.29" rx="0.64"/><rect class="cls-2" x="22.39" y="23.14" width="11" height="1.29" rx="0.64"/><rect class="cls-2" x="22.39" y="30.21" width="11" height="1.29" rx="0.64"/></svg>