<svg id="Layer_1" data-name="Layer 1" xmlns="http://www.w3.org/2000/svg" width="244.75" height="61.15" viewBox="0 0 244.75 61.15"><defs><style>.cls-1{fill:#fcfcfc;}</style></defs><title>logo-objetivo</title><g id="_Group_" data-name="&lt;Group&gt;"><path id="_Path_" data-name="&lt;Path&gt;" class="cls-1" d="M124.63,34.16a2.88,2.88,0,0,1-1.3,2.36,6.09,6.09,0,0,1-2.82.9l0,7.13s3.14.72,7.91-2.44c4.08-2.71,4.32-7.76,4.32-7.76l0-18.78-8.13,0S124.63,33.4,124.63,34.16Z"/><polygon id="_Path_2" data-name="&lt;Path&gt;" class="cls-1" points="134.64 44.45 150.41 44.34 150.4 37.49 142.27 37.51 142.26 33.08 149.76 33.07 149.75 26.2 142.38 26.23 142.37 22.42 150.7 22.4 150.68 15.52 134.57 15.56 134.64 44.45"/><rect id="_Path_3" data-name="&lt;Path&gt;" class="cls-1" x="172.76" y="15.42" width="7.44" height="28.86" transform="translate(-0.08 0.46) rotate(-0.15)"/><path id="_Compound_Path_" data-name="&lt;Compound Path&gt;" class="cls-1" d="M81,15.56A15,15,0,1,0,95.93,30.5,14.94,14.94,0,0,0,81,15.56Zm.19,22.94A7.83,7.83,0,1,1,89,30.65,7.81,7.81,0,0,1,81.19,38.5Z"/><path id="_Compound_Path_2" data-name="&lt;Compound Path&gt;" class="cls-1" d="M222.85,15.2a15,15,0,1,0,14.94,14.94A14.95,14.95,0,0,0,222.85,15.2Zm.2,22.94a7.83,7.83,0,1,1,7.77-7.85A7.81,7.81,0,0,1,223.05,38.14Z"/><polygon id="_Path_4" data-name="&lt;Path&gt;" class="cls-1" points="202.85 15.35 196.38 31.07 189.87 15.38 181.67 15.4 193.59 44.23 199.27 44.21 211.05 15.33 202.85 15.35"/><path id="_Compound_Path_3" data-name="&lt;Compound Path&gt;" class="cls-1" d="M113.6,29.28a6.46,6.46,0,0,0,3.77-5.76c0-7.27-8.35-7.89-8.35-7.89l-10.6,0,.07,28.81,11.91,0s8.74-1.19,8.73-7.84C119.12,31.48,113.6,29.28,113.6,29.28Zm-7.87-7.18h3a2.07,2.07,0,0,1,1.86,2.28,2.24,2.24,0,0,1-2.06,2.15h-2.76Zm3.69,15.77h-3.65V33.45h4.41s1.51.16,1.52,2.34C111.7,37.72,109.42,37.87,109.42,37.87Z"/><polygon id="_Path_5" data-name="&lt;Path&gt;" class="cls-1" points="152.29 22.38 158.14 22.36 158.2 44.32 165.63 44.3 165.57 22.35 171.42 22.33 171.41 15.47 152.27 15.52 152.29 22.38"/></g><g id="_Group_2" data-name="&lt;Group&gt;"><path id="_Path_6" data-name="&lt;Path&gt;" class="cls-1" d="M45.48,15.21a15.13,15.13,0,0,0-4.12.57l14.83,15L41.45,45.55a15.1,15.1,0,0,0,4.11.55,15.45,15.45,0,0,0-.08-30.89Z"/><path id="_Path_7" data-name="&lt;Path&gt;" class="cls-1" d="M38.82,38.64A7.94,7.94,0,0,1,31,31.85l1.31-1.3L31,29.27a7.93,7.93,0,1,1,13.75,6.66l5.19-5.22L37.26,17.63a15.16,15.16,0,0,0-7,10.94L16.82,15.1H11L26,30.5l-4.89,4.84a7.91,7.91,0,1,0-6.24,3.08,7.82,7.82,0,0,0,4.75-1.59l-8.87,8.79,6.25,0L30.27,32.53a15.45,15.45,0,0,0,6.85,11.06L44,36.65A7.89,7.89,0,0,1,38.82,38.64Z"/></g></svg>