<svg id="Camada_1" data-name="Camada 1" xmlns="http://www.w3.org/2000/svg" viewBox="0 0 47 40"><defs><style>.cls-1{fill:none;stroke:#606060;stroke-miterlimit:10;stroke-width:1.5px;}</style></defs><title>games</title><path class="cls-1" d="M9.08,10c-.29.31-.58.64-.84,1A31.74,31.74,0,0,0,2,25a11.89,11.89,0,0,0,.21,6.45A3.51,3.51,0,0,0,6.12,34a12.84,12.84,0,0,0,7.05-2.73c1.86-1.35,3.64-2.82,5.54-4.13a7.68,7.68,0,0,1,9.22-.06c1.32.87,2.54,1.87,3.8,2.82a20.13,20.13,0,0,0,6,3.56c5,1.57,7.4-.24,7.24-6.72a29.58,29.58,0,0,0-6.21-15.36c-3.26-4.29-5.3-4.7-10.09-2.31a12,12,0,0,1-5.4,1.38A14,14,0,0,1,17,8.56C13.64,6.93,11.63,7.33,9.08,10Z"/><circle class="cls-1" cx="30.55" cy="19.93" r="1.6"/><circle class="cls-1" cx="34.15" cy="16.19" r="1.6"/><circle class="cls-1" cx="37.67" cy="19.93" r="1.6"/><circle class="cls-1" cx="34.15" cy="23.39" r="1.6"/><polygon class="cls-1" points="17.43 18.15 14.72 18.15 14.72 15.44 12.19 15.44 12.19 18.15 9.48 18.15 9.48 20.68 12.19 20.68 12.19 23.39 14.72 23.39 14.72 20.68 17.43 20.68 17.43 18.15"/></svg>