<svg id="Camada_1" data-name="Camada 1" xmlns="http://www.w3.org/2000/svg" viewBox="0 0 47 40"><defs><style>.cls-1{fill:none;stroke:#606060;stroke-miterlimit:10;stroke-width:1.5px;}</style></defs><title>texto</title><path class="cls-1" d="M27.78,26H16.86L16,28.46c-.24.68-.43,1.34-.59,2a8.89,8.89,0,0,0-.23,2c0,1.68.89,2.57,2.66,2.69v1.69H6.93V35.16a3.25,3.25,0,0,0,1.66-.66A5.8,5.8,0,0,0,9.9,33a16.74,16.74,0,0,0,1.25-2.79L21.82,1.75h6.83L37.09,30.4A20.68,20.68,0,0,0,38,33.13a3.76,3.76,0,0,0,1,1.3,4,4,0,0,0,1.71.73v1.69H26.63V35.16a3.44,3.44,0,0,0,2-.74,2.13,2.13,0,0,0,.64-1.66A9.83,9.83,0,0,0,29.06,31c-.12-.65-.32-1.47-.59-2.46Zm-10-3H27l-4.1-14.4Z"/></svg>